# xmcd
#
# Track frame offsets: 
#        187
#        14340
#        27357
#        38587
#        52337
#        64247
#        78165
#        90950
#        104772
#        119127
#        137137
#        153920
#        172052
#        190582
#        204745
#        217015
#        229527
#
# Disc length: 3216 seconds
#
# Revision: 1
# Processed by: cddbd v1.5.1PL2 Copyright (c) Steve Scherf et al.
# Submitted via: ExactAudioCopy v0.95b3
#
DISCID=ef0c8e11
DTITLE=Pete Johnson - King of Boogie
DYEAR=1900
DGENRE=Blues
TTITLE0=Shuffle Boogie
TTITLE1=Lone Star Blues
TTITLE2=Buss Robinson Blues
TTITLE3=B&O Blues
TTITLE4=How Long, How Long
TTITLE5=Climbin' and Screamin'
TTITLE6=Pete's Blues
TTITLE7=Let 'em Jump
TTITLE8=Pete's Blues No. 2
TTITLE9=Holler Stomp
TTITLE10=Vine Street Bustle
TTITLE11=Barrelhouse Breakdown
TTITLE12=You Don't Know My Mind
TTITLE13=627 Stomp
TTITLE14=Basement Boogie
TTITLE15=Death Ray Boogie
TTITLE16=Just For You
EXTD=
EXTT0=
EXTT1=
EXTT2=
EXTT3=
EXTT4=
EXTT5=
EXTT6=
EXTT7=
EXTT8=
EXTT9=
EXTT10=
EXTT11=
EXTT12=
EXTT13=
EXTT14=
EXTT15=
EXTT16=
PLAYORDER=
